<?xml version="1.0" ?><svg viewBox="0 0 40 40" xmlns="http://www.w3.org/2000/svg"><g id="InDesign"><path d="M28.48,29c0,.11,0,.14-.15.2a10.88,10.88,0,0,1-4.68,1.06c-4,0-6.81-2.44-6.81-7.42,0-4.26,2.83-7.59,7.34-7.59.38,0,.58,0,.95,0V10.45a.18.18,0,0,1,.18-.18h2.9c.14,0,.18.05.18.15v16.8A13.32,13.32,0,0,0,28.48,29ZM25.13,18.18A2.75,2.75,0,0,0,24.07,18c-2.31,0-3.92,1.78-3.92,4.73,0,3.37,1.65,4.72,3.72,4.72a3.37,3.37,0,0,0,1.26-.2ZM11.52,10c0-.2.05-.3.21-.3h2.82c.14,0,.22.08.22.3V29.69c0,.2,0,.3-.22.3H11.77c-.18,0-.23-.13-.23-.33V10Z"/></g></svg>